<?xml version="1.0" encoding="utf-8"?>
<!-- Generator: Adobe Illustrator 18.1.0, SVG Export Plug-In . SVG Version: 6.00 Build 0)  -->
<svg version="1.0" id="Layer_1" xmlns="http://www.w3.org/2000/svg" xmlns:xlink="http://www.w3.org/1999/xlink" x="0px" y="0px"
	 width="200px" height="200px" viewBox="0 0 200 200" enable-background="new 0 0 200 200" xml:space="preserve">
<g>
	<path fill="#1D1D1B" d="M21.5,112.3H17v-25h5.7c6.3,0,9.6,4.7,9.6,9.4c0,4.6-3.4,9.4-9,9.4h-1.8V112.3L21.5,112.3z M21.5,101.8h1.7
		c3.1,0,4.7-2.6,4.7-5.1c0-2.5-1.6-5.2-5.2-5.2h-1.2V101.8L21.5,101.8z"/>
	<path fill="#1D1D1B" d="M44.6,112.8c-5.8,0-9.8-4-9.8-10V87.3h4.5v15.3c0,3.9,1.9,6,5.2,6c4.3,0,5.2-3.3,5.2-6V87.3h4.5v15.4
		C54.4,108.7,50.5,112.8,44.6,112.8L44.6,112.8z"/>
	<polygon fill="#1D1D1B" points="69.6,112.3 57.4,112.3 57.4,87.3 61.9,87.3 61.9,108 69.6,108 69.6,112.3 	"/>
	<polygon fill="#1D1D1B" points="83.6,112.3 71.4,112.3 71.4,87.3 75.9,87.3 75.9,108 83.6,108 83.6,112.3 	"/>
	<path fill="#1D1D1B" d="M117.3,112.3h-7.7v-25h4.7c2.7,0,4.7,0.2,6.3,1.1c2.2,1.3,3.5,3.5,3.5,6c0,1.7-0.7,3.3-2,4.4
		c2.4,1.2,3.7,3.3,3.7,6.2C125.7,109.1,122,112.3,117.3,112.3L117.3,112.3z M114.1,108.1h2.4c4.7,0,4.7-2.5,4.7-3.3
		c0-0.8,0-3.2-4.5-3.2h-2.5V108.1L114.1,108.1z M114.1,97.5h1.8c1.7,0,3.7-0.5,3.7-3c0-1.3-0.4-3.1-3.9-3.1h-1.6V97.5L114.1,97.5z"
		/>
	<polygon fill="#1D1D1B" points="143.4,112.3 128.1,112.3 128.1,87.3 143.4,87.3 143.4,91.5 132.6,91.5 132.6,97.5 142.8,97.5 
		142.8,101.6 132.6,101.6 132.6,108.1 143.4,108.1 143.4,112.3 	"/>
	<path fill="#1D1D1B" d="M168.9,112.3h-5.1l-2.5-6.5H152l-2.5,6.5h-4.8l10.2-25h3.5L168.9,112.3L168.9,112.3z M153.6,101.6h6
		c0,0-3-7.5-3-7.6C156.6,94.1,153.6,101.6,153.6,101.6L153.6,101.6z"/>
	<path fill="#1D1D1B" d="M179.2,108.1c0.7,1.3,1.4,2.8,2.2,4.2h5.6c-1.2-1.9-2.5-4.3-3.5-6.3c-0.7-1.5-1.4-2.8-1.8-3.8
		c1.1-0.6,2.1-1.5,2.9-2.7c0.7-1.2,1.1-2.7,1.1-4.3c0-4.9-3.6-7.9-9.6-7.9h-6.1v25h4.5v-8.4c0,0,1.1,0,2.7-0.2
		C177.6,104.7,178.3,106.3,179.2,108.1z M174.4,99.4v-7.9h1.4c3.5,0,5.3,1.3,5.3,3.8c0,3.4-2.8,4.1-5.2,4.1H174.4z"/>
	<path fill="#1D1D1B" d="M105.2,101.6c-0.1,0-0.1,0-0.2,0C105.1,101.6,105.2,101.6,105.2,101.6z"/>
	<path fill="#1D1D1B" d="M102.5,106.5c0-0.9,0.1-1.7,0.3-2.4c0.4-1.4,1.3-2.4,2.2-2.5c0.1,0,0.1,0,0.2,0v-4.2
		c-3.1,0-5.7,2.2-6.4,5.1l-6.6-7.2l0,0c-0.5-0.5-0.7-1.1-0.7-1.8c0-0.6,0.2-1.3,0.7-1.8h0c0.5-0.5,1.1-0.7,1.8-0.7
		c0.6,0,1.3,0.2,1.8,0.7c0.2,0.2,0.4,0.5,0.5,0.8l3.8-1.9c-0.3-0.7-0.8-1.3-1.3-1.9l0,0l0,0c-1.3-1.3-3-2-4.7-2
		c-1.7,0-3.4,0.7-4.7,2h0c-1.3,1.3-2,3-2,4.7c0,1.7,0.6,3.4,1.9,4.7l0,0c-2.3,1.4-3.9,3.9-3.9,6.8l0,0c0,4.6,3.7,8.3,8.3,8.3v0
		c2.6,0,5-1.1,6.7-2.9l1.8,1.9h5.7L102.5,106.5z M93.6,109L93.6,109c-2.3,0-4.1-1.8-4.1-4.1h0c0-1.7,1.1-3.1,2.7-3.5l5.3,5.8
		C96.5,108.3,95.2,109,93.6,109z"/>
</g>
</svg>
